<mxfile host="app.diagrams.net" modified="2023-06-22T09:47:00.303Z" agent="Mozilla/5.0 (Macintosh; Intel Mac OS X 10_15_7) AppleWebKit/537.36 (KHTML, like Gecko) Chrome/114.0.0.0 Safari/537.36" etag="DIZ4h0enJT5_cuSLcQ0w" version="21.3.8" type="github">
  <diagram name="Page-1" id="c9ofWrENyJ3qVxIOdhhi">
    <mxGraphModel dx="3804" dy="1188" grid="1" gridSize="10" guides="1" tooltips="1" connect="1" arrows="1" fold="1" page="1" pageScale="1" pageWidth="850" pageHeight="1100" math="0" shadow="0">
      <root>
        <mxCell id="0" />
        <mxCell id="1" parent="0" />
        <mxCell id="SaWeX0w0EADOhBqS0NB5-1" value="Admin" style="shape=umlActor;verticalLabelPosition=bottom;verticalAlign=top;html=1;outlineConnect=0;" parent="1" vertex="1">
          <mxGeometry x="360" y="20" width="30" height="60" as="geometry" />
        </mxCell>
        <mxCell id="SaWeX0w0EADOhBqS0NB5-2" value="File Menu" style="rhombus;whiteSpace=wrap;html=1;fillColor=#fff2cc;strokeColor=#d6b656;" parent="1" vertex="1">
          <mxGeometry x="335" y="150" width="80" height="80" as="geometry" />
        </mxCell>
        <mxCell id="SaWeX0w0EADOhBqS0NB5-3" value="Create File" style="rounded=1;whiteSpace=wrap;html=1;fillColor=#d5e8d4;strokeColor=#82b366;" parent="1" vertex="1">
          <mxGeometry x="160" y="280" width="120" height="60" as="geometry" />
        </mxCell>
        <mxCell id="SaWeX0w0EADOhBqS0NB5-4" value="Exit Application" style="rounded=1;whiteSpace=wrap;html=1;fillColor=#d5e8d4;strokeColor=#82b366;" parent="1" vertex="1">
          <mxGeometry x="315" y="280" width="120" height="60" as="geometry" />
        </mxCell>
        <mxCell id="SaWeX0w0EADOhBqS0NB5-5" value="Open File" style="rounded=1;whiteSpace=wrap;html=1;fillColor=#d5e8d4;strokeColor=#82b366;" parent="1" vertex="1">
          <mxGeometry x="470" y="280" width="120" height="60" as="geometry" />
        </mxCell>
        <mxCell id="SaWeX0w0EADOhBqS0NB5-6" value="Key in:&lt;br&gt;Course Name&lt;br&gt;Course Date&lt;br&gt;Course Price&lt;br&gt;Seat Bookings" style="rounded=1;whiteSpace=wrap;html=1;fillColor=#d5e8d4;strokeColor=#82b366;" parent="1" vertex="1">
          <mxGeometry x="30" y="380" width="120" height="80" as="geometry" />
        </mxCell>
        <mxCell id="SaWeX0w0EADOhBqS0NB5-7" value="Admin select file&lt;br&gt;to open" style="rounded=1;whiteSpace=wrap;html=1;fillColor=#d5e8d4;strokeColor=#82b366;" parent="1" vertex="1">
          <mxGeometry x="470" y="390" width="120" height="60" as="geometry" />
        </mxCell>
        <mxCell id="SaWeX0w0EADOhBqS0NB5-8" value="Error001:&lt;br&gt;File open Error" style="rounded=1;whiteSpace=wrap;html=1;fillColor=#f8cecc;strokeColor=#b85450;" parent="1" vertex="1">
          <mxGeometry x="640" y="390" width="120" height="60" as="geometry" />
        </mxCell>
        <mxCell id="SaWeX0w0EADOhBqS0NB5-9" value="Error04:&lt;br&gt;Invalid Data" style="rounded=1;whiteSpace=wrap;html=1;fillColor=#f8cecc;strokeColor=#b85450;" parent="1" vertex="1">
          <mxGeometry x="170" y="480" width="120" height="60" as="geometry" />
        </mxCell>
        <mxCell id="SaWeX0w0EADOhBqS0NB5-10" value="Error 003:&lt;br&gt;File Save Error" style="rounded=1;whiteSpace=wrap;html=1;fillColor=#f8cecc;strokeColor=#b85450;" parent="1" vertex="1">
          <mxGeometry x="315" y="480" width="120" height="60" as="geometry" />
        </mxCell>
        <mxCell id="SaWeX0w0EADOhBqS0NB5-11" value="Select Next Course" style="rounded=1;whiteSpace=wrap;html=1;fillColor=#d5e8d4;strokeColor=#82b366;" parent="1" vertex="1">
          <mxGeometry x="-80" y="580" width="120" height="60" as="geometry" />
        </mxCell>
        <mxCell id="SaWeX0w0EADOhBqS0NB5-12" value="Enter Next or Save" style="rhombus;whiteSpace=wrap;html=1;fillColor=#fff2cc;strokeColor=#d6b656;" parent="1" vertex="1">
          <mxGeometry x="50" y="660" width="80" height="80" as="geometry" />
        </mxCell>
        <mxCell id="SaWeX0w0EADOhBqS0NB5-13" value="Correct Date&lt;br&gt;or&amp;nbsp;&lt;br&gt;Incorrect Date" style="rhombus;whiteSpace=wrap;html=1;fillColor=#fff2cc;strokeColor=#d6b656;" parent="1" vertex="1">
          <mxGeometry x="190" y="660" width="80" height="80" as="geometry" />
        </mxCell>
        <mxCell id="SaWeX0w0EADOhBqS0NB5-14" value="Save File&amp;nbsp;&lt;br&gt;Successful?" style="rhombus;whiteSpace=wrap;html=1;fillColor=#fff2cc;strokeColor=#d6b656;" parent="1" vertex="1">
          <mxGeometry x="335" y="660" width="80" height="80" as="geometry" />
        </mxCell>
        <mxCell id="SaWeX0w0EADOhBqS0NB5-15" value="Is the file in the correct format?" style="rhombus;whiteSpace=wrap;html=1;fillColor=#fff2cc;strokeColor=#d6b656;" parent="1" vertex="1">
          <mxGeometry x="490" y="560" width="80" height="80" as="geometry" />
        </mxCell>
        <mxCell id="SaWeX0w0EADOhBqS0NB5-16" value="Error002:&lt;br&gt;File incorrect Format" style="rounded=1;whiteSpace=wrap;html=1;fillColor=#f8cecc;strokeColor=#b85450;" parent="1" vertex="1">
          <mxGeometry x="640" y="570" width="120" height="60" as="geometry" />
        </mxCell>
        <mxCell id="SaWeX0w0EADOhBqS0NB5-17" value="File Course Information is Displayed Allowing Bookings To Be. Entered" style="rounded=1;whiteSpace=wrap;html=1;fillColor=#d5e8d4;strokeColor=#82b366;" parent="1" vertex="1">
          <mxGeometry x="470" y="750" width="120" height="60" as="geometry" />
        </mxCell>
        <mxCell id="SaWeX0w0EADOhBqS0NB5-18" value="Error04:&lt;br&gt;Invalid Data" style="rounded=1;whiteSpace=wrap;html=1;fillColor=#f8cecc;strokeColor=#b85450;" parent="1" vertex="1">
          <mxGeometry x="640" y="700" width="120" height="60" as="geometry" />
        </mxCell>
        <mxCell id="SaWeX0w0EADOhBqS0NB5-19" value="Error 003:&lt;br&gt;File Save Error" style="rounded=1;whiteSpace=wrap;html=1;fillColor=#f8cecc;strokeColor=#b85450;" parent="1" vertex="1">
          <mxGeometry x="810" y="700" width="120" height="60" as="geometry" />
        </mxCell>
        <mxCell id="SaWeX0w0EADOhBqS0NB5-20" value="Save file&lt;br&gt;successful?" style="rhombus;whiteSpace=wrap;html=1;fillColor=#fff2cc;strokeColor=#d6b656;" parent="1" vertex="1">
          <mxGeometry x="830" y="860" width="80" height="80" as="geometry" />
        </mxCell>
        <mxCell id="SaWeX0w0EADOhBqS0NB5-21" value="DataCheck:&lt;br&gt;pass or fail?" style="rhombus;whiteSpace=wrap;html=1;fillColor=#fff2cc;strokeColor=#d6b656;" parent="1" vertex="1">
          <mxGeometry x="660" y="860" width="80" height="80" as="geometry" />
        </mxCell>
        <mxCell id="SaWeX0w0EADOhBqS0NB5-22" value="Click &quot;Exit&quot;&amp;nbsp;&lt;br&gt;or&lt;br&gt;Save &amp;amp; Exit" style="rhombus;whiteSpace=wrap;html=1;fillColor=#fff2cc;strokeColor=#d6b656;" parent="1" vertex="1">
          <mxGeometry x="490" y="860" width="80" height="80" as="geometry" />
        </mxCell>
        <mxCell id="SaWeX0w0EADOhBqS0NB5-24" value="" style="endArrow=classic;html=1;rounded=0;entryX=0.5;entryY=0;entryDx=0;entryDy=0;exitX=0;exitY=0.5;exitDx=0;exitDy=0;" parent="1" source="SaWeX0w0EADOhBqS0NB5-2" target="SaWeX0w0EADOhBqS0NB5-3" edge="1">
          <mxGeometry width="50" height="50" relative="1" as="geometry">
            <mxPoint x="390" y="330" as="sourcePoint" />
            <mxPoint x="440" y="280" as="targetPoint" />
            <Array as="points">
              <mxPoint x="220" y="190" />
            </Array>
          </mxGeometry>
        </mxCell>
        <mxCell id="SaWeX0w0EADOhBqS0NB5-25" value="" style="endArrow=classic;html=1;rounded=0;entryX=0.5;entryY=0;entryDx=0;entryDy=0;exitX=1;exitY=0.5;exitDx=0;exitDy=0;" parent="1" source="SaWeX0w0EADOhBqS0NB5-2" target="SaWeX0w0EADOhBqS0NB5-5" edge="1">
          <mxGeometry width="50" height="50" relative="1" as="geometry">
            <mxPoint x="390" y="330" as="sourcePoint" />
            <mxPoint x="440" y="280" as="targetPoint" />
            <Array as="points">
              <mxPoint x="530" y="190" />
            </Array>
          </mxGeometry>
        </mxCell>
        <mxCell id="SaWeX0w0EADOhBqS0NB5-26" value="" style="endArrow=classic;html=1;rounded=0;exitX=0.5;exitY=1;exitDx=0;exitDy=0;entryX=0.5;entryY=0;entryDx=0;entryDy=0;" parent="1" source="SaWeX0w0EADOhBqS0NB5-2" target="SaWeX0w0EADOhBqS0NB5-4" edge="1">
          <mxGeometry width="50" height="50" relative="1" as="geometry">
            <mxPoint x="390" y="330" as="sourcePoint" />
            <mxPoint x="440" y="280" as="targetPoint" />
          </mxGeometry>
        </mxCell>
        <mxCell id="SaWeX0w0EADOhBqS0NB5-27" value="" style="endArrow=classic;html=1;rounded=0;exitX=0.5;exitY=1;exitDx=0;exitDy=0;entryX=0.5;entryY=0;entryDx=0;entryDy=0;" parent="1" source="SaWeX0w0EADOhBqS0NB5-5" target="SaWeX0w0EADOhBqS0NB5-7" edge="1">
          <mxGeometry width="50" height="50" relative="1" as="geometry">
            <mxPoint x="390" y="470" as="sourcePoint" />
            <mxPoint x="440" y="420" as="targetPoint" />
          </mxGeometry>
        </mxCell>
        <mxCell id="SaWeX0w0EADOhBqS0NB5-28" value="" style="endArrow=classic;html=1;rounded=0;entryX=0;entryY=0.5;entryDx=0;entryDy=0;exitX=1;exitY=0.5;exitDx=0;exitDy=0;" parent="1" source="SaWeX0w0EADOhBqS0NB5-7" target="SaWeX0w0EADOhBqS0NB5-8" edge="1">
          <mxGeometry width="50" height="50" relative="1" as="geometry">
            <mxPoint x="390" y="470" as="sourcePoint" />
            <mxPoint x="440" y="420" as="targetPoint" />
          </mxGeometry>
        </mxCell>
        <mxCell id="SaWeX0w0EADOhBqS0NB5-29" value="" style="endArrow=classic;html=1;rounded=0;entryX=0.5;entryY=0;entryDx=0;entryDy=0;exitX=0.5;exitY=1;exitDx=0;exitDy=0;" parent="1" source="SaWeX0w0EADOhBqS0NB5-7" target="SaWeX0w0EADOhBqS0NB5-15" edge="1">
          <mxGeometry width="50" height="50" relative="1" as="geometry">
            <mxPoint x="390" y="470" as="sourcePoint" />
            <mxPoint x="440" y="420" as="targetPoint" />
          </mxGeometry>
        </mxCell>
        <mxCell id="SaWeX0w0EADOhBqS0NB5-30" value="Yes" style="endArrow=classic;html=1;rounded=0;exitX=0.5;exitY=1;exitDx=0;exitDy=0;entryX=0.5;entryY=0;entryDx=0;entryDy=0;" parent="1" source="SaWeX0w0EADOhBqS0NB5-15" target="SaWeX0w0EADOhBqS0NB5-17" edge="1">
          <mxGeometry width="50" height="50" relative="1" as="geometry">
            <mxPoint x="390" y="760" as="sourcePoint" />
            <mxPoint x="440" y="710" as="targetPoint" />
          </mxGeometry>
        </mxCell>
        <mxCell id="SaWeX0w0EADOhBqS0NB5-31" value="" style="endArrow=classic;html=1;rounded=0;exitX=0.5;exitY=1;exitDx=0;exitDy=0;" parent="1" source="SaWeX0w0EADOhBqS0NB5-17" target="SaWeX0w0EADOhBqS0NB5-22" edge="1">
          <mxGeometry width="50" height="50" relative="1" as="geometry">
            <mxPoint x="390" y="830" as="sourcePoint" />
            <mxPoint x="440" y="780" as="targetPoint" />
          </mxGeometry>
        </mxCell>
        <mxCell id="SaWeX0w0EADOhBqS0NB5-32" value="No" style="endArrow=classic;html=1;rounded=0;entryX=0;entryY=0.5;entryDx=0;entryDy=0;exitX=1;exitY=0.5;exitDx=0;exitDy=0;" parent="1" source="SaWeX0w0EADOhBqS0NB5-15" target="SaWeX0w0EADOhBqS0NB5-16" edge="1">
          <mxGeometry width="50" height="50" relative="1" as="geometry">
            <mxPoint x="390" y="620" as="sourcePoint" />
            <mxPoint x="440" y="570" as="targetPoint" />
          </mxGeometry>
        </mxCell>
        <mxCell id="SaWeX0w0EADOhBqS0NB5-33" value="" style="endArrow=classic;html=1;rounded=0;exitX=0.5;exitY=0;exitDx=0;exitDy=0;entryX=0.75;entryY=0;entryDx=0;entryDy=0;" parent="1" source="SaWeX0w0EADOhBqS0NB5-19" target="SaWeX0w0EADOhBqS0NB5-17" edge="1">
          <mxGeometry width="50" height="50" relative="1" as="geometry">
            <mxPoint x="610" y="790" as="sourcePoint" />
            <mxPoint x="580" y="660" as="targetPoint" />
            <Array as="points">
              <mxPoint x="870" y="650" />
              <mxPoint x="560" y="650" />
            </Array>
          </mxGeometry>
        </mxCell>
        <mxCell id="SaWeX0w0EADOhBqS0NB5-34" value="" style="endArrow=classic;html=1;rounded=0;entryX=1;entryY=0.75;entryDx=0;entryDy=0;exitX=0.325;exitY=0.983;exitDx=0;exitDy=0;exitPerimeter=0;" parent="1" source="SaWeX0w0EADOhBqS0NB5-18" target="SaWeX0w0EADOhBqS0NB5-17" edge="1">
          <mxGeometry width="50" height="50" relative="1" as="geometry">
            <mxPoint x="700" y="770" as="sourcePoint" />
            <mxPoint x="640" y="840" as="targetPoint" />
            <Array as="points">
              <mxPoint x="680" y="795" />
            </Array>
          </mxGeometry>
        </mxCell>
        <mxCell id="SaWeX0w0EADOhBqS0NB5-35" value="Save &amp;amp; Exit" style="endArrow=classic;html=1;rounded=0;exitX=1;exitY=0.5;exitDx=0;exitDy=0;" parent="1" source="SaWeX0w0EADOhBqS0NB5-22" target="SaWeX0w0EADOhBqS0NB5-21" edge="1">
          <mxGeometry width="50" height="50" relative="1" as="geometry">
            <mxPoint x="610" y="790" as="sourcePoint" />
            <mxPoint x="660" y="740" as="targetPoint" />
          </mxGeometry>
        </mxCell>
        <mxCell id="SaWeX0w0EADOhBqS0NB5-36" value="Pass" style="endArrow=classic;html=1;rounded=0;exitX=1;exitY=0.5;exitDx=0;exitDy=0;entryX=0;entryY=0.5;entryDx=0;entryDy=0;" parent="1" source="SaWeX0w0EADOhBqS0NB5-21" target="SaWeX0w0EADOhBqS0NB5-20" edge="1">
          <mxGeometry width="50" height="50" relative="1" as="geometry">
            <mxPoint x="610" y="790" as="sourcePoint" />
            <mxPoint x="660" y="740" as="targetPoint" />
          </mxGeometry>
        </mxCell>
        <mxCell id="SaWeX0w0EADOhBqS0NB5-37" value="No" style="endArrow=classic;html=1;rounded=0;exitX=0.5;exitY=0;exitDx=0;exitDy=0;entryX=0.5;entryY=1;entryDx=0;entryDy=0;" parent="1" source="SaWeX0w0EADOhBqS0NB5-20" target="SaWeX0w0EADOhBqS0NB5-19" edge="1">
          <mxGeometry width="50" height="50" relative="1" as="geometry">
            <mxPoint x="610" y="790" as="sourcePoint" />
            <mxPoint x="660" y="740" as="targetPoint" />
          </mxGeometry>
        </mxCell>
        <mxCell id="SaWeX0w0EADOhBqS0NB5-38" value="Yes" style="endArrow=classic;html=1;rounded=0;exitX=0.5;exitY=1;exitDx=0;exitDy=0;entryX=0.5;entryY=1;entryDx=0;entryDy=0;" parent="1" source="SaWeX0w0EADOhBqS0NB5-20" edge="1">
          <mxGeometry width="50" height="50" relative="1" as="geometry">
            <mxPoint x="610" y="910" as="sourcePoint" />
            <mxPoint x="375" y="930" as="targetPoint" />
            <Array as="points">
              <mxPoint x="870" y="980" />
              <mxPoint x="375" y="980" />
            </Array>
          </mxGeometry>
        </mxCell>
        <mxCell id="SaWeX0w0EADOhBqS0NB5-39" value="" style="endArrow=classic;html=1;rounded=0;exitX=0.5;exitY=1;exitDx=0;exitDy=0;entryX=0.5;entryY=0;entryDx=0;entryDy=0;" parent="1" source="SaWeX0w0EADOhBqS0NB5-14" edge="1">
          <mxGeometry width="50" height="50" relative="1" as="geometry">
            <mxPoint x="610" y="870" as="sourcePoint" />
            <mxPoint x="375" y="870" as="targetPoint" />
          </mxGeometry>
        </mxCell>
        <mxCell id="SaWeX0w0EADOhBqS0NB5-55" value="Yes" style="edgeLabel;html=1;align=center;verticalAlign=middle;resizable=0;points=[];" parent="SaWeX0w0EADOhBqS0NB5-39" vertex="1" connectable="0">
          <mxGeometry x="-0.359" y="-4" relative="1" as="geometry">
            <mxPoint as="offset" />
          </mxGeometry>
        </mxCell>
        <mxCell id="SaWeX0w0EADOhBqS0NB5-40" value="No" style="endArrow=classic;html=1;rounded=0;exitX=0.5;exitY=0;exitDx=0;exitDy=0;entryX=0.5;entryY=1;entryDx=0;entryDy=0;" parent="1" source="SaWeX0w0EADOhBqS0NB5-14" target="SaWeX0w0EADOhBqS0NB5-10" edge="1">
          <mxGeometry width="50" height="50" relative="1" as="geometry">
            <mxPoint x="600" y="710" as="sourcePoint" />
            <mxPoint x="650" y="660" as="targetPoint" />
          </mxGeometry>
        </mxCell>
        <mxCell id="SaWeX0w0EADOhBqS0NB5-41" value="Pass" style="endArrow=classic;html=1;rounded=0;exitX=1;exitY=0.5;exitDx=0;exitDy=0;entryX=0;entryY=0.5;entryDx=0;entryDy=0;" parent="1" source="SaWeX0w0EADOhBqS0NB5-13" target="SaWeX0w0EADOhBqS0NB5-14" edge="1">
          <mxGeometry width="50" height="50" relative="1" as="geometry">
            <mxPoint x="370" y="710" as="sourcePoint" />
            <mxPoint x="420" y="660" as="targetPoint" />
          </mxGeometry>
        </mxCell>
        <mxCell id="SaWeX0w0EADOhBqS0NB5-42" value="Save" style="endArrow=classic;html=1;rounded=0;exitX=1;exitY=0.5;exitDx=0;exitDy=0;entryX=0;entryY=0.5;entryDx=0;entryDy=0;" parent="1" source="SaWeX0w0EADOhBqS0NB5-12" target="SaWeX0w0EADOhBqS0NB5-13" edge="1">
          <mxGeometry width="50" height="50" relative="1" as="geometry">
            <mxPoint x="270" y="710" as="sourcePoint" />
            <mxPoint x="320" y="660" as="targetPoint" />
          </mxGeometry>
        </mxCell>
        <mxCell id="SaWeX0w0EADOhBqS0NB5-43" value="Next" style="endArrow=classic;html=1;rounded=0;exitX=0;exitY=0.5;exitDx=0;exitDy=0;entryX=0.5;entryY=1;entryDx=0;entryDy=0;" parent="1" source="SaWeX0w0EADOhBqS0NB5-12" target="SaWeX0w0EADOhBqS0NB5-11" edge="1">
          <mxGeometry width="50" height="50" relative="1" as="geometry">
            <mxPoint x="220" y="710" as="sourcePoint" />
            <mxPoint x="-20" y="650" as="targetPoint" />
            <Array as="points">
              <mxPoint x="-20" y="700" />
            </Array>
          </mxGeometry>
        </mxCell>
        <mxCell id="SaWeX0w0EADOhBqS0NB5-44" value="" style="endArrow=classic;html=1;rounded=0;exitX=0.5;exitY=0;exitDx=0;exitDy=0;entryX=0.5;entryY=1;entryDx=0;entryDy=0;" parent="1" source="SaWeX0w0EADOhBqS0NB5-13" target="SaWeX0w0EADOhBqS0NB5-9" edge="1">
          <mxGeometry width="50" height="50" relative="1" as="geometry">
            <mxPoint x="220" y="600" as="sourcePoint" />
            <mxPoint x="270" y="550" as="targetPoint" />
          </mxGeometry>
        </mxCell>
        <mxCell id="SaWeX0w0EADOhBqS0NB5-54" value="Fail" style="edgeLabel;html=1;align=center;verticalAlign=middle;resizable=0;points=[];" parent="SaWeX0w0EADOhBqS0NB5-44" vertex="1" connectable="0">
          <mxGeometry x="-0.2153" y="-1" relative="1" as="geometry">
            <mxPoint as="offset" />
          </mxGeometry>
        </mxCell>
        <mxCell id="SaWeX0w0EADOhBqS0NB5-45" value="" style="endArrow=classic;html=1;rounded=0;entryX=1;entryY=0.5;entryDx=0;entryDy=0;exitX=0.5;exitY=0;exitDx=0;exitDy=0;" parent="1" source="SaWeX0w0EADOhBqS0NB5-9" target="SaWeX0w0EADOhBqS0NB5-6" edge="1">
          <mxGeometry width="50" height="50" relative="1" as="geometry">
            <mxPoint x="220" y="490" as="sourcePoint" />
            <mxPoint x="270" y="440" as="targetPoint" />
            <Array as="points">
              <mxPoint x="230" y="420" />
            </Array>
          </mxGeometry>
        </mxCell>
        <mxCell id="SaWeX0w0EADOhBqS0NB5-46" value="" style="endArrow=classic;html=1;rounded=0;exitX=0.5;exitY=0;exitDx=0;exitDy=0;entryX=1;entryY=0.25;entryDx=0;entryDy=0;" parent="1" source="SaWeX0w0EADOhBqS0NB5-10" target="SaWeX0w0EADOhBqS0NB5-6" edge="1">
          <mxGeometry width="50" height="50" relative="1" as="geometry">
            <mxPoint x="220" y="490" as="sourcePoint" />
            <mxPoint x="270" y="440" as="targetPoint" />
            <Array as="points">
              <mxPoint x="375" y="400" />
            </Array>
          </mxGeometry>
        </mxCell>
        <mxCell id="SaWeX0w0EADOhBqS0NB5-47" value="" style="endArrow=classic;html=1;rounded=0;exitX=0;exitY=0.5;exitDx=0;exitDy=0;entryX=0.5;entryY=0;entryDx=0;entryDy=0;" parent="1" source="SaWeX0w0EADOhBqS0NB5-3" target="SaWeX0w0EADOhBqS0NB5-6" edge="1">
          <mxGeometry width="50" height="50" relative="1" as="geometry">
            <mxPoint x="220" y="380" as="sourcePoint" />
            <mxPoint x="270" y="330" as="targetPoint" />
            <Array as="points">
              <mxPoint x="90" y="310" />
            </Array>
          </mxGeometry>
        </mxCell>
        <mxCell id="SaWeX0w0EADOhBqS0NB5-52" value="" style="endArrow=classic;html=1;rounded=0;entryX=0.5;entryY=0;entryDx=0;entryDy=0;" parent="1" target="SaWeX0w0EADOhBqS0NB5-2" edge="1">
          <mxGeometry width="50" height="50" relative="1" as="geometry">
            <mxPoint x="375" y="110" as="sourcePoint" />
            <mxPoint x="470" y="240" as="targetPoint" />
          </mxGeometry>
        </mxCell>
        <mxCell id="SaWeX0w0EADOhBqS0NB5-53" value="Exit" style="endArrow=classic;html=1;rounded=0;exitX=0;exitY=0.5;exitDx=0;exitDy=0;entryX=1;entryY=0.5;entryDx=0;entryDy=0;" parent="1" source="SaWeX0w0EADOhBqS0NB5-22" edge="1">
          <mxGeometry width="50" height="50" relative="1" as="geometry">
            <mxPoint x="380" y="810" as="sourcePoint" />
            <mxPoint x="435" y="900" as="targetPoint" />
          </mxGeometry>
        </mxCell>
        <mxCell id="SaWeX0w0EADOhBqS0NB5-56" value="" style="endArrow=classic;html=1;rounded=0;exitX=1;exitY=0.5;exitDx=0;exitDy=0;entryX=0.5;entryY=0;entryDx=0;entryDy=0;" parent="1" source="SaWeX0w0EADOhBqS0NB5-11" target="SaWeX0w0EADOhBqS0NB5-12" edge="1">
          <mxGeometry width="50" height="50" relative="1" as="geometry">
            <mxPoint x="300" y="570" as="sourcePoint" />
            <mxPoint x="350" y="520" as="targetPoint" />
            <Array as="points">
              <mxPoint x="90" y="610" />
            </Array>
          </mxGeometry>
        </mxCell>
        <mxCell id="MgOH5K_mlKCeW7CTVBlK-1" value="Fail" style="endArrow=classic;html=1;rounded=0;exitX=0.5;exitY=0;exitDx=0;exitDy=0;entryX=0.5;entryY=1;entryDx=0;entryDy=0;" parent="1" source="SaWeX0w0EADOhBqS0NB5-21" target="SaWeX0w0EADOhBqS0NB5-18" edge="1">
          <mxGeometry width="50" height="50" relative="1" as="geometry">
            <mxPoint x="400" y="600" as="sourcePoint" />
            <mxPoint x="450" y="550" as="targetPoint" />
          </mxGeometry>
        </mxCell>
        <mxCell id="jVKe89Cc6PrTHZn1NfyR-1" value="Exit Application" style="ellipse;whiteSpace=wrap;html=1;fillColor=#d5e8d4;strokeColor=#82b366;" vertex="1" parent="1">
          <mxGeometry x="325" y="870" width="100" height="60" as="geometry" />
        </mxCell>
      </root>
    </mxGraphModel>
  </diagram>
</mxfile>
